<?xml version="1.0" encoding="UTF-8" standalone="no"?>
<!-- Created with Inkscape (http://www.inkscape.org/) -->

<svg
   width="512"
   height="512"
   viewBox="0 0 512 512"
   version="1.1"
   id="svg5"
   inkscape:version="1.1.2 (0a00cf5339, 2022-02-04)"
   sodipodi:docname="icon.svg"
   xmlns:inkscape="http://www.inkscape.org/namespaces/inkscape"
   xmlns:sodipodi="http://sodipodi.sourceforge.net/DTD/sodipodi-0.dtd"
   xmlns="http://www.w3.org/2000/svg"
   xmlns:svg="http://www.w3.org/2000/svg"
   xmlns:rdf="http://www.w3.org/1999/02/22-rdf-syntax-ns#"
   xmlns:cc="http://creativecommons.org/ns#"
   xmlns:dc="http://purl.org/dc/elements/1.1/">
  <title
     id="title3987">Periodical File Sender icon</title>
  <sodipodi:namedview
     id="namedview7"
     pagecolor="#505050"
     bordercolor="#ffffff"
     borderopacity="1"
     inkscape:pageshadow="0"
     inkscape:pageopacity="0"
     inkscape:pagecheckerboard="1"
     inkscape:document-units="px"
     showgrid="false"
     inkscape:object-paths="true"
     inkscape:snap-intersection-paths="true"
     inkscape:snap-object-midpoints="true"
     inkscape:snap-center="true"
     inkscape:zoom="1.35"
     inkscape:cx="271.48148"
     inkscape:cy="272.96296"
     inkscape:window-width="1920"
     inkscape:window-height="993"
     inkscape:window-x="0"
     inkscape:window-y="0"
     inkscape:window-maximized="1"
     inkscape:current-layer="layer1"
     inkscape:snap-global="true"
     inkscape:snap-smooth-nodes="true"
     inkscape:snap-midpoints="true" />
  <defs
     id="defs2" />
  <g
     inkscape:label="Layer 1"
     inkscape:groupmode="layer"
     id="layer1">
    <g
       id="g10603"
       transform="matrix(1.5066778,0,0,1.5066778,-163.75837,-177.66351)"
       style="stroke-width:1.32742382;stroke-miterlimit:4;stroke-dasharray:none">
      <path
         id="path9791"
         style="fill:#ffffff;stroke:none;stroke-width:1.32742382;stroke-miterlimit:4;stroke-dasharray:none"
         d="m 141.05273,255.19531 -0.66211,0.20508 0.66602,-0.19727 z m -0.66211,0.20508 c -3.50214,1.38741 -5.9746,4.78158 -5.9746,8.78906 v 182.91602 c 0,5.24643 4.22426,9.46875 9.4707,9.46875 H 413.3125 c 5.24644,0 9.46875,-4.22232 9.46875,-9.46875 V 264.18945 c 0,-3.82992 -2.26312,-7.09522 -5.51953,-8.58984 z m 276.26563,-0.0469 -0.0156,0.0332 0.61719,0.21094 z"
         sodipodi:nodetypes="cccccsssssscccccc" />
      <path
         style="fill:#ffffff;stroke:#000000;stroke-width:1.32742382;stroke-miterlimit:4;stroke-dasharray:none"
         d="m 280.38086,146.10067 c -57.86742,-0.55101 -112.74172,50.13715 -140.01758,110.18555 1.08986,-0.43555 2.27447,-0.68945 3.52344,-0.68945 H 413.3125 c 1.41026,0 2.7333,0.32485 3.93359,0.87305 -26.51165,-59.49536 -79.7796,-109.82558 -136.86523,-110.36915 z"
         id="path6014" />
    </g>
    <g
       id="g10623"
       transform="matrix(1.5066778,0,0,1.5066778,-163.75837,-177.66351)"
       style="stroke-width:1.32742382;stroke-miterlimit:4;stroke-dasharray:none">
      <path
         id="rect325"
         style="fill:#ffffff;stroke:#000000;stroke-width:1.32742382;stroke-miterlimit:4;stroke-dasharray:none"
         d="m 334.53344,119.78821 v 44.89386 c 0,5.92302 4.79529,10.74533 10.74533,10.74533 h 44.89388 z m -154.4878,0 c -7.60501,0 -13.72813,6.12312 -13.72813,13.72813 v 292.33764 c 0,7.60501 6.12149,13.72813 13.72813,13.72813 h 196.39888 c 7.60499,0 13.72813,-6.123 13.72813,-13.72813 V 175.4274 l -55.63921,-55.63919 z"
         sodipodi:nodetypes="cssccssssssccs" />
      <g
         id="g9512"
         transform="translate(1.6589485,3.86825)"
         style="stroke-width:1.32742382;stroke-miterlimit:4;stroke-dasharray:none">
        <path
           id="path6136"
           style="fill:none;fill-opacity:1;stroke:#000000;stroke-width:1.32742382;stroke-miterlimit:4;stroke-dasharray:none"
           d="m 276.94066,157.28711 a 99.442078,99.442078 0 0 0 -99.44336,99.44141 99.442078,99.442078 0 0 0 99.44336,99.44336 99.442078,99.442078 0 0 0 99.44141,-99.44336 99.442078,99.442078 0 0 0 -99.44141,-99.44141 z m 0,14.91601 a 84.525764,84.525764 0 0 1 84.52539,84.5254 84.525764,84.525764 0 0 1 -84.52539,84.52734 84.525764,84.525764 0 0 1 -84.52734,-84.52734 84.525764,84.525764 0 0 1 84.52734,-84.5254 z" />
        <path
           id="rect6465"
           style="fill:#000000;fill-opacity:1;stroke:#000000;stroke-width:1.32742382;stroke-miterlimit:4;stroke-dasharray:none"
           inkscape:transform-center-x="-74.5"
           d="m 343.25707,251.72852 c -1.00626,0 -1.81641,0.81014 -1.81641,1.8164 v 6.36719 c 0,1.00626 0.81015,1.81641 1.81641,1.81641 h 16.36719 c 0.65581,0 1.2257,-0.34505 1.54492,-0.86329 a 84.525764,84.525764 0 0 0 0.27148,-3.78125 v -1.39257 a 84.525764,84.525764 0 0 0 -0.0645,-2.61719 c -0.20695,-0.77572 -0.90925,-1.3457 -1.75195,-1.3457 z" />
        <path
           id="rect6649"
           style="fill:#000000;fill-opacity:1;stroke:#000000;stroke-width:1.32742382;stroke-miterlimit:4;stroke-dasharray:none"
           inkscape:transform-center-x="-64.518876"
           inkscape:transform-center-y="37.24999"
           d="m 336.01097,285.3125 c -0.64386,-0.0174 -1.27519,0.31104 -1.62109,0.91016 l -3.18359,5.51367 c -0.50313,0.87144 -0.20543,1.97734 0.66601,2.48047 l 14.17383,8.18359 c 0.71308,0.4117 1.58383,0.28797 2.15234,-0.24805 a 84.525764,84.525764 0 0 0 3.75586,-6.87695 c -0.0128,-0.61331 -0.336,-1.2048 -0.9082,-1.53516 l -14.17383,-8.18359 c -0.27232,-0.15723 -0.56866,-0.23623 -0.86133,-0.24414 z" />
        <path
           id="rect6651"
           style="fill:#000000;fill-opacity:1;stroke:#000000;stroke-width:1.32742382;stroke-miterlimit:4;stroke-dasharray:none"
           inkscape:transform-center-x="-37.249998"
           inkscape:transform-center-y="64.518866"
           d="m 312.80785,310.75195 c -0.29266,0.008 -0.589,0.0869 -0.86133,0.24414 l -5.51367,3.1836 c -0.87145,0.50313 -1.16719,1.60902 -0.66406,2.48047 l 8.18359,14.17578 c 0.33053,0.57249 0.92151,0.89372 1.53516,0.90625 a 84.525764,84.525764 0 0 0 6.87109,-3.75196 c 0.53922,-0.56842 0.66657,-1.43954 0.25391,-2.15429 l -8.1836,-14.17578 c -0.3459,-0.59912 -0.97723,-0.9256 -1.62109,-0.90821 z" />
        <path
           id="rect6653"
           style="fill:#000000;fill-opacity:1;stroke:#000000;stroke-width:1.32742382;stroke-miterlimit:4;stroke-dasharray:none"
           inkscape:transform-center-y="74.499969"
           d="m 273.75707,321.22852 c -1.00626,0 -1.81641,0.81014 -1.81641,1.8164 v 16.36719 c 0,0.65657 0.346,1.22788 0.86524,1.54687 a 84.525764,84.525764 0 0 0 3.75195,0.26954 h 0.76562 a 84.525764,84.525764 0 0 0 3.75,-0.26954 c 0.51959,-0.31892 0.86719,-0.89004 0.86719,-1.54687 v -16.36719 c 0,-1.00626 -0.81015,-1.8164 -1.8164,-1.8164 z" />
        <path
           id="rect6655"
           style="fill:#000000;fill-opacity:1;stroke:#000000;stroke-width:1.32742382;stroke-miterlimit:4;stroke-dasharray:none"
           inkscape:transform-center-x="37.250001"
           inkscape:transform-center-y="64.518856"
           d="m 241.07347,310.75195 c -0.64386,-0.0174 -1.27519,0.30909 -1.62109,0.90821 l -8.18359,14.17578 c -0.41264,0.7147 -0.28717,1.58587 0.25195,2.15429 a 84.525764,84.525764 0 0 0 6.87305,3.75196 c 0.6133,-0.0129 1.2048,-0.33406 1.53515,-0.90625 l 8.1836,-14.17578 c 0.50313,-0.87145 0.20543,-1.97734 -0.66602,-2.48047 l -5.51367,-3.1836 c -0.27233,-0.15722 -0.56671,-0.23623 -0.85938,-0.24414 z" />
        <path
           id="rect6657"
           style="fill:#000000;fill-opacity:1;stroke:#000000;stroke-width:1.32742382;stroke-miterlimit:4;stroke-dasharray:none"
           inkscape:transform-center-x="64.518868"
           inkscape:transform-center-y="37.249958"
           d="m 217.8684,285.3125 c -0.29267,0.008 -0.58705,0.0869 -0.85938,0.24414 l -14.17578,8.18359 c -0.57219,0.33036 -0.8934,0.92186 -0.90625,1.53516 a 84.525764,84.525764 0 0 0 3.75586,6.87695 c 0.56851,0.53594 1.43735,0.65972 2.15039,0.24805 l 14.17578,-8.18359 c 0.87145,-0.50313 1.16719,-1.60903 0.66406,-2.48047 l -3.18359,-5.51367 c -0.3459,-0.59912 -0.97723,-0.92755 -1.62109,-0.91016 z" />
        <path
           id="rect6659"
           style="fill:#000000;fill-opacity:1;stroke:#000000;stroke-width:1.32742382;stroke-miterlimit:4;stroke-dasharray:none"
           inkscape:transform-center-x="74.49997"
           inkscape:transform-center-y="-3.1105656e-05"
           d="m 194.25707,251.72852 c -0.65684,0 -1.22796,0.3476 -1.54688,0.86718 a 84.525764,84.525764 0 0 0 -0.26953,3.75 v 0.76563 a 84.525764,84.525764 0 0 0 0.26953,3.75195 c 0.319,0.51923 0.89031,0.86524 1.54688,0.86524 h 16.36719 c 1.00625,0 1.8164,-0.81015 1.8164,-1.81641 v -6.36719 c 0,-1.00626 -0.81015,-1.8164 -1.8164,-1.8164 z" />
        <path
           id="rect6661"
           style="fill:#000000;fill-opacity:1;stroke:#000000;stroke-width:1.32742382;stroke-miterlimit:4;stroke-dasharray:none"
           inkscape:transform-center-x="64.518841"
           inkscape:transform-center-y="-37.250007"
           d="m 206.97386,210.8125 c -0.47366,-0.0128 -0.93962,0.16283 -1.29101,0.49414 a 84.525764,84.525764 0 0 0 -3.75586,6.87695 c 0.0129,0.61331 0.33406,1.20285 0.90625,1.53321 l 14.17578,8.18359 c 0.87145,0.50313 1.97734,0.20738 2.48047,-0.66406 l 3.18359,-5.51367 c 0.50313,-0.87145 0.20739,-1.9793 -0.66406,-2.48243 l -14.17578,-8.18359 c -0.27233,-0.15723 -0.56671,-0.23623 -0.85938,-0.24414 z" />
        <path
           id="rect6663"
           style="fill:#000000;fill-opacity:1;stroke:#000000;stroke-width:1.32742382;stroke-miterlimit:4;stroke-dasharray:none"
           inkscape:transform-center-x="37.249945"
           inkscape:transform-center-y="-64.518882"
           d="m 238.39379,181.7168 a 84.525764,84.525764 0 0 0 -6.87696,3.7539 c -0.53601,0.56851 -0.65974,1.43927 -0.24804,2.15235 l 8.18359,14.17383 c 0.50313,0.87144 1.60902,1.16914 2.48047,0.66601 l 5.51367,-3.18359 c 0.87145,-0.50313 1.16915,-1.61098 0.66602,-2.48242 l -8.1836,-14.17383 c -0.33035,-0.5722 -0.92185,-0.89341 -1.53515,-0.90625 z" />
        <path
           id="rect6665"
           style="fill:#000000;fill-opacity:1;stroke:#000000;stroke-width:1.32742382;stroke-miterlimit:4;stroke-dasharray:none"
           inkscape:transform-center-x="-6.0879528e-05"
           inkscape:transform-center-y="-74.49997"
           d="M 276.58519,172.22852 A 84.525764,84.525764 0 0 0 272.80394,172.5 c -0.51823,0.31921 -0.86328,0.88911 -0.86328,1.54492 v 16.36719 c 0,1.00626 0.81015,1.81641 1.81641,1.81641 h 6.36719 c 1.00625,0 1.8164,-0.81015 1.8164,-1.81641 v -16.36719 c 0,-0.84231 -0.56859,-1.54463 -1.34375,-1.75195 a 84.525764,84.525764 0 0 0 -2.51562,-0.0625 84.525764,84.525764 0 0 0 -0.10352,-0.002 z" />
        <path
           id="rect6667"
           style="fill:#000000;fill-opacity:1;stroke:#000000;stroke-width:1.32742382;stroke-miterlimit:4;stroke-dasharray:none"
           inkscape:transform-center-x="-37.250018"
           inkscape:transform-center-y="-64.51884"
           d="m 315.57347,181.71484 c -0.64386,-0.0174 -1.27519,0.30909 -1.62109,0.90821 l -8.18359,14.17383 c -0.50313,0.87144 -0.20739,1.97929 0.66406,2.48242 l 5.51367,3.18359 c 0.87145,0.50313 1.97929,0.20543 2.48242,-0.66601 l 8.1836,-14.17383 c 0.40879,-0.70805 0.28817,-1.57192 -0.23828,-2.14063 a 84.525764,84.525764 0 0 0 -1.64844,-1.04492 l -2.00196,-1.15625 a 84.525764,84.525764 0 0 0 -2.76562,-1.51367 c -0.12773,-0.0317 -0.25587,-0.0493 -0.38477,-0.0527 z" />
        <path
           id="rect6669"
           style="fill:#000000;fill-opacity:1;stroke:#000000;stroke-width:1.32742382;stroke-miterlimit:4;stroke-dasharray:none"
           inkscape:transform-center-x="-64.518869"
           inkscape:transform-center-y="-37.249944"
           d="m 346.9055,210.8125 c -0.29266,0.008 -0.58704,0.0869 -0.85937,0.24414 l -14.17383,8.18359 c -0.87144,0.50313 -1.16914,1.61098 -0.66601,2.48243 l 3.18359,5.51367 c 0.50313,0.87144 1.61098,1.16719 2.48242,0.66406 l 14.17383,-8.18359 c 0.71906,-0.41515 1.04552,-1.2401 0.85547,-2.00586 a 84.525764,84.525764 0 0 0 -1.51367,-2.76563 l -1.15625,-2.00195 a 84.525764,84.525764 0 0 0 -1.04492,-1.64844 c -0.34998,-0.32397 -0.81299,-0.49507 -1.28126,-0.48242 z" />
        <rect
           style="fill:#000000;fill-opacity:1;stroke:#000000;stroke-width:1.32742382;stroke-miterlimit:4;stroke-dasharray:none"
           id="rect6671"
           width="74.5"
           height="10"
           x="4.2910519"
           y="372.36118"
           ry="1.8163511"
           inkscape:transform-center-x="-19.26867"
           transform="rotate(-45)"
           inkscape:transform-center-y="-19.26866" />
        <rect
           style="fill:#000000;fill-opacity:1;stroke:#000000;stroke-width:1.32742382;stroke-miterlimit:4;stroke-dasharray:none"
           id="rect6959"
           width="61.847244"
           height="10"
           x="-343.94913"
           y="-181.30621"
           ry="1.8163511"
           transform="rotate(-165)"
           inkscape:transform-center-y="-5.4153541"
           inkscape:transform-center-x="20.21246" />
        <circle
           style="fill:#000000;fill-opacity:1;stroke:#000000;stroke-width:1.32742382;stroke-miterlimit:4;stroke-dasharray:none"
           id="path7089"
           cx="276.93994"
           cy="256.72934"
           r="6.3263779" />
      </g>
    </g>
    <path
       id="path6012"
       style="fill:#ffffff;stroke:#000000;stroke-width:2;stroke-miterlimit:4;stroke-dasharray:none"
       d="m 458.97039,206.11557 c 0.053,0 0.10053,0.0166 0.153,0.0176 h 0.0235 c -0.0609,-7.6e-4 -0.11603,-0.0176 -0.17654,-0.0176 z m -410.207747,0.71802 c -0.332482,0.10425 -0.676241,0.18164 -0.99759,0.30894 0.321595,-0.1274 0.671435,-0.19135 1.003483,-0.29727 -0.0018,-0.004 -0.0041,-0.007 -0.0059,-0.0118 z m -0.99759,0.30894 c -5.276588,2.09037 -9.001795,7.20431 -9.001795,13.24229 v 275.59551 c 0,7.90467 6.364605,14.26633 14.269291,14.26633 H 458.97039 c 7.90469,0 14.26635,-6.36166 14.26635,-14.26633 V 220.38486 c 0,-5.77047 -3.4098,-10.69022 -8.31615,-12.94214 C 423.81965,297.90217 341.15111,374.25456 253.97395,373.42447 167.96697,372.60554 87.710847,296.77924 47.765053,207.14257 Z m 416.243277,-0.0706 c -0.007,0.0166 -0.0157,0.0334 -0.0235,0.05 0.30541,0.11691 0.63426,0.18223 0.92986,0.31788 -0.29658,-0.13594 -0.59915,-0.25207 -0.90633,-0.36789 z" />
  </g>
  <metadata
     id="metadata3985">
    <rdf:RDF>
      <cc:Work
         rdf:about="">
        <dc:title>Periodical File Sender icon</dc:title>
        <dc:creator>
          <cc:Agent>
            <dc:title>Hamza Abbad</dc:title>
          </cc:Agent>
        </dc:creator>
        <dc:description>Simple icon for Periodical File Sender</dc:description>
        <cc:license
           rdf:resource="http://creativecommons.org/licenses/by/4.0/" />
      </cc:Work>
      <cc:License
         rdf:about="http://creativecommons.org/licenses/by/4.0/">
        <cc:permits
           rdf:resource="http://creativecommons.org/ns#Reproduction" />
        <cc:permits
           rdf:resource="http://creativecommons.org/ns#Distribution" />
        <cc:requires
           rdf:resource="http://creativecommons.org/ns#Notice" />
        <cc:requires
           rdf:resource="http://creativecommons.org/ns#Attribution" />
        <cc:permits
           rdf:resource="http://creativecommons.org/ns#DerivativeWorks" />
      </cc:License>
    </rdf:RDF>
  </metadata>
</svg>
